# xmcd CD database file
#
# Track frame offsets:
#	187
#	20595
#	38475
#	55397
#	74965
#	99385
#	118195
#	139425
#	159825
#	180935
#
# Disc length: 2731 seconds
#
# Revision: 0
# Processed by: cddbd v1.5.1PL0 Copyright (c) Steve Scherf et al.
# Submitted via: CDex 1.51
#
DISCID=890aa90a
DTITLE=深津絵里 - Applause
DYEAR=1990
DGENRE=J-Pop
TTITLE0=アプローチ
TTITLE1=はじめてのリグレット
TTITLE2=想像失恋
TTITLE3=彼の涙・彼女の意思
TTITLE4=銀のエスカレーター
TTITLE5=YOKOHAMAジョーク
TTITLE6=消えた８月
TTITLE7=７つの涙
TTITLE8=ひと夏のメルヘン
TTITLE9=マリオネット・ブルー
EXTD=YEAR: 1990
EXTT0=
EXTT1=
EXTT2=
EXTT3=
EXTT4=
EXTT5=
EXTT6=
EXTT7=
EXTT8=
EXTT9=
PLAYORDER=
